<?xml version="1.0" standalone="no"?>
<!DOCTYPE svg PUBLIC "-//W3C//DTD SVG 20010904//EN"
 "http://www.w3.org/TR/2001/REC-SVG-20010904/DTD/svg10.dtd">
<svg version="1.0" xmlns="http://www.w3.org/2000/svg"
 width="700.000000pt" height="700.000000pt" viewBox="0 0 700.000000 700.000000"
 preserveAspectRatio="xMidYMid meet">
<metadata>
Created by potrace 1.11, written by Peter Selinger 2001-2013
</metadata>
<g transform="translate(0.000000,700.000000) scale(0.100000,-0.100000)"
fill="#000000" stroke="none">
<path d="M234 4324 c0 -1440 1 -1504 18 -1510 10 -3 18 -10 18 -15 0 -5 5 -9
10 -9 6 0 27 -11 48 -24 20 -13 143 -88 272 -167 129 -78 303 -183 385 -234
83 -50 159 -97 171 -103 l21 -11 0 750 c0 412 2 751 4 753 2 3 115 -76 249
-175 135 -99 323 -236 418 -305 94 -70 172 -130 172 -135 0 -5 -11 -16 -25
-25 l-25 -16 2 -526 3 -526 235 -148 c207 -130 305 -191 399 -249 14 -9 191
-120 393 -247 l368 -231 1 59 c3 231 8 212 -63 255 -35 21 -94 59 -133 83
-121 78 -161 103 -502 318 -346 217 -428 269 -453 284 -13 7 -15 62 -15 385 0
207 2 380 5 385 3 4 65 71 139 149 74 78 145 154 158 169 l23 27 -22 17 c-13
9 -88 70 -168 135 l-145 119 -3 398 -2 399 22 16 c13 9 79 51 148 93 69 43
132 82 140 88 8 6 39 25 68 43 93 57 305 189 372 232 36 22 147 92 248 155
l182 114 1 60 c1 71 -1 210 -4 212 -2 1 -201 -123 -957 -595 -8 -5 -109 -68
-224 -141 l-209 -131 -141 108 c-78 59 -145 111 -151 115 -5 5 -37 29 -70 54
-33 25 -67 50 -75 57 -8 7 -112 86 -230 177 -118 90 -260 198 -315 240 -55 43
-192 147 -305 234 -113 86 -212 162 -220 169 -29 23 -215 163 -226 169 -7 5
-10 -449 -10 -1498z"/>
<path d="M6570 5684 c-96 -74 -186 -142 -199 -152 -13 -9 -47 -35 -75 -58 -28
-22 -118 -91 -201 -154 -82 -63 -177 -135 -210 -160 -33 -25 -145 -111 -250
-191 -104 -80 -215 -165 -245 -188 -30 -23 -104 -80 -165 -126 -60 -46 -130
-99 -154 -118 l-44 -35 -75 47 c-42 25 -355 220 -696 432 -529 329 -622 383
-626 367 -3 -11 -4 -72 -3 -136 1 -97 4 -119 18 -127 9 -5 42 -26 73 -46 125
-79 618 -384 632 -392 8 -4 114 -69 235 -145 l220 -137 3 -379 2 -378 -42 -47
c-23 -25 -94 -101 -157 -169 -64 -68 -117 -126 -119 -131 -1 -4 72 -68 163
-141 91 -74 166 -139 166 -144 1 -6 2 -186 3 -401 l2 -390 -91 -56 c-49 -31
-308 -191 -575 -355 -267 -165 -496 -307 -509 -316 -23 -16 -24 -22 -25 -143
-1 -70 1 -130 4 -134 3 -5 129 69 281 163 152 94 473 292 713 441 l436 270 0
520 -1 521 -35 28 -35 27 28 22 c83 66 798 586 801 583 2 -2 3 -342 3 -755 0
-701 1 -750 17 -742 9 5 84 50 166 100 81 50 152 91 156 91 5 0 10 3 12 8 2 6
69 47 333 207 18 11 84 51 146 88 l114 69 0 1499 c0 993 -3 1499 -10 1498 -5
0 -89 -61 -185 -135z"/>
<path d="M2914 4529 c-247 -154 -457 -286 -468 -292 -17 -12 -18 -31 -18 -290
-1 -153 1 -279 3 -281 2 -2 128 -103 279 -226 151 -122 295 -239 320 -260 121
-101 278 -228 308 -248 l32 -23 1 63 c0 35 0 202 0 371 l0 309 -33 28 c-18 15
-55 46 -83 69 l-50 41 0 182 0 181 82 55 c78 52 83 57 84 91 2 151 0 503 -3
507 -3 2 -207 -122 -454 -277z"/>
<path d="M3628 4803 c-9 -18 -1 -537 8 -540 5 -2 56 -28 114 -57 l105 -52 1
-87 c1 -48 3 -89 5 -91 2 -2 132 -99 288 -216 l284 -213 64 68 c36 37 68 77
72 89 11 32 7 529 -4 533 -6 2 -62 35 -125 75 -63 39 -173 107 -245 151 -71
44 -159 99 -195 122 -58 37 -147 92 -243 149 -18 11 -51 32 -75 48 -47 31 -49
31 -54 21z"/>
<path d="M3629 3632 c-4 -16 -3 -671 1 -717 1 -12 35 -47 90 -90 l89 -70 0
-185 1 -185 -90 -55 c-50 -30 -90 -61 -91 -70 0 -8 -2 -131 -2 -273 -2 -225 0
-256 13 -251 8 3 225 134 481 292 l467 287 1 276 1 277 -218 177 c-119 98
-233 190 -252 206 -94 76 -344 280 -411 336 -61 50 -77 59 -80 45z"/>
<path d="M2514 2916 l-68 -74 -1 -265 -1 -265 56 -35 c30 -19 237 -150 459
-291 222 -141 406 -256 410 -256 4 0 6 393 1 525 0 15 -26 34 -105 75 -58 30
-105 59 -106 65 0 5 0 42 0 81 0 40 -5 79 -12 87 -9 13 -288 225 -426 324 -14
10 -36 27 -50 39 -14 11 -40 30 -57 42 l-32 22 -68 -74z"/>
</g>
</svg>
