<?xml version="1.0" encoding="utf-8"?>
<!-- Generator: Adobe Illustrator 16.0.0, SVG Export Plug-In . SVG Version: 6.00 Build 0)  -->
<!DOCTYPE svg PUBLIC "-//W3C//DTD SVG 1.1//EN" "http://www.w3.org/Graphics/SVG/1.1/DTD/svg11.dtd">
<svg version="1.1" id="Layer_1" xmlns="http://www.w3.org/2000/svg" xmlns:xlink="http://www.w3.org/1999/xlink" x="0px" y="0px"
	 width="320px" height="320px" viewBox="0 0 400 400" enable-background="new 0 0 400 400" xml:space="preserve">
<g>
	<polygon fill="#FFFFFF" points="125.14,196.732 144.46,212.452 128.33,229.643 115.99,220.593 67.269,184.853 67.269,271.522 
		25.63,246.143 13.419,238.702 13.419,66.788 125.14,152.212 	"/>
	<polygon fill="#FFFFFF" points="386.502,66.788 386.502,238.702 374.293,246.143 332.652,271.522 332.652,184.853 284.973,219.822 
		273.832,227.992 256.422,213.822 274.912,194.103 274.912,152.112 	"/>
	<polygon opacity="0.3" points="13.416,66.788 13.416,238.725 25.628,246.173 25.628,93.072 118.968,147.705 	"/>
	<polygon opacity="0.3" points="386.584,66.788 386.584,238.725 374.371,246.173 374.371,93.072 281.033,147.705 	"/>
	<polygon fill="#FFFFFF" points="192.673,317.452 125.96,275.452 125.96,232.172 128.33,229.643 144.46,212.452 125.14,196.732 
		125.14,151.063 192.689,108.86 192.689,93.098 112.66,143.093 111.769,143.652 111.769,203.093 124.89,213.772 115.99,220.593 
		112.589,223.192 112.589,282.894 192.689,333.202 192.689,317.444 	"/>
	<polygon fill="#FFFFFF" points="284.973,219.822 275.982,212.502 288.283,199.393 288.283,143.382 287.512,142.902 207.271,93.072 
		207.23,93.098 207.23,108.86 207.293,108.822 274.912,150.822 274.912,194.103 256.422,213.822 273.832,227.992 275.732,229.542 
		275.732,275.212 207.23,317.444 207.23,333.202 207.246,333.212 289.102,282.622 289.102,223.192 	"/>
	<polygon fill="#FFFFFF" points="183.101,183.472 183.101,162.673 192.689,156.192 192.689,124.867 138.718,158.589 
		138.718,190.278 192.689,234.22 192.689,191.277 	"/>
	<polygon fill="#FFFFFF" points="253.361,197.232 261.334,188.738 261.334,158.37 207.23,124.867 207.23,156.192 207.297,156.147 
		220.438,162.673 220.438,172.633 253.363,197.237 	"/>
	<polygon fill="#FFFFFF" points="261.688,267.978 262.158,267.688 262.158,235.999 207.23,191.277 207.23,234.22 217.773,242.804 
		217.773,263.604 207.23,270.126 207.23,301.46 	"/>
	<polygon fill="#FFFFFF" points="192.689,301.46 192.689,270.126 180.439,263.604 180.439,253.64 147.732,229.203 139.759,237.534 
		139.759,267.899 	"/>
	<polygon fill="#00E6FF" points="147.732,229.04 147.642,229.136 147.732,229.203 	"/>
	<polygon opacity="0.3" points="207.23,124.867 207.23,135.237 253.361,162.298 253.361,197.232 261.334,188.738 261.334,158.37 
		246.596,149.213 207.314,124.815 	"/>
	<polygon opacity="0.3" points="192.689,124.867 153.376,149.429 138.718,158.589 192.689,135.237 	"/>
	<polygon opacity="0.3" points="207.23,291.362 207.23,301.46 261.688,267.978 	"/>
	<polygon opacity="0.3" points="147.732,263.977 147.732,229.203 147.642,229.136 139.759,237.534 139.759,267.899 192.689,301.46 
		192.689,291.362 	"/>
</g>
</svg>
