<?xml version="1.0" encoding="utf-8"?>
<!-- Generator: Adobe Illustrator 16.0.0, SVG Export Plug-In . SVG Version: 6.00 Build 0)  -->
<!DOCTYPE svg PUBLIC "-//W3C//DTD SVG 1.1//EN" "http://www.w3.org/Graphics/SVG/1.1/DTD/svg11.dtd">
<svg version="1.1" id="Layer_1" xmlns="http://www.w3.org/2000/svg" xmlns:xlink="http://www.w3.org/1999/xlink" x="0px" y="0px"
	 width="400px" height="200px" viewBox="0 0 400 200" enable-background="new 0 0 400 200" xml:space="preserve">
<g>
	<polygon fill="#FF0000" points="30.546,87.444 10.42,61.332 10.42,99.949 17.518,99.949 17.518,81.866 30.544,98.878 
		43.579,82.026 43.579,99.949 50.674,99.949 50.674,61.332 	"/>
	<rect x="114.441" y="61.332" fill="#FF0000" width="7.097" height="38.617"/>
	<path fill="#FF0000" d="M203.583,87.006c-2.525-3.173-5.066-6.377-7.62-9.605c2.235-2.142,4.458-4.259,6.667-6.351
		c2.522-2.385,5.063-4.807,7.62-7.262l2.562-2.456h-9.329l-0.414,0.391c-2.555,2.423-5.088,4.832-7.593,7.234
		c-1.979,1.899-3.977,3.804-5.988,5.716v-13.34h-7.098v38.617h7.098V83.604c0.392-0.367,0.773-0.734,1.148-1.093
		c0.146-0.141,0.292-0.283,0.44-0.425c2.125,2.689,4.235,5.368,6.336,8.043c2.418,3.084,4.855,6.178,7.309,9.278l0.429,0.542h8.698
		l-1.828-2.313C209.188,94.057,206.378,90.515,203.583,87.006z"/>
	<polygon fill="#FF0000" points="277.26,83.958 293.048,83.958 293.048,77.068 277.26,77.068 277.26,68.222 295.039,68.222 
		295.039,61.332 270.163,61.332 270.163,99.949 295.756,99.949 295.756,93.057 277.26,93.057 	"/>
	<path fill="#FF0000" d="M380.775,61.332l-0.413,0.698c-1.636,2.761-3.265,5.514-4.882,8.253c-1.414,2.398-2.835,4.802-4.262,7.211
		c-1.432-2.409-2.861-4.816-4.292-7.215c-1.635-2.739-3.268-5.488-4.903-8.249l-0.417-0.698h-8.527l1.276,2.155
		c2.179,3.677,4.354,7.341,6.516,10.984l6.313,10.648v14.83h8.066V85.167c2.113-3.598,4.21-7.154,6.29-10.672
		c2.146-3.629,4.312-7.298,6.491-11.012l1.262-2.151H380.775z"/>
</g>
<g>
	<path fill="#FFFFFF" d="M22.427,120.633c-0.24,0.295-0.474,0.595-0.7,0.893c-0.231,0.298-0.463,0.594-0.701,0.892
		c-0.16-0.157-0.369-0.332-0.626-0.522c-0.256-0.188-0.551-0.362-0.878-0.521c-0.327-0.159-0.696-0.291-1.102-0.399
		c-0.408-0.109-0.841-0.165-1.296-0.165c-1.151,0-2.004,0.327-2.561,0.982c-0.558,0.652-0.835,1.428-0.835,2.323
		c0,0.498,0.094,0.913,0.282,1.253c0.19,0.335,0.438,0.618,0.746,0.849c0.308,0.227,0.655,0.421,1.042,0.579
		c0.388,0.159,0.789,0.309,1.206,0.449c0.655,0.235,1.361,0.519,2.116,0.85c0.754,0.325,1.455,0.744,2.102,1.248
		c0.644,0.508,1.181,1.128,1.607,1.861c0.426,0.736,0.64,1.619,0.64,2.653c0,0.892-0.164,1.698-0.492,2.409
		c-0.328,0.717-0.775,1.326-1.34,1.836c-0.565,0.504-1.227,0.894-1.981,1.163c-0.755,0.266-1.549,0.398-2.384,0.398
		c-0.754,0-1.489-0.103-2.203-0.31c-0.715-0.212-1.372-0.48-1.967-0.805c-0.595-0.33-1.127-0.691-1.593-1.088
		c-0.466-0.397-0.83-0.794-1.088-1.195l1.55-1.546c0.259,0.276,0.566,0.57,0.923,0.882c0.358,0.303,0.747,0.589,1.162,0.847
		c0.417,0.259,0.875,0.467,1.371,0.624c0.496,0.158,1.032,0.238,1.608,0.238c0.515,0,1.012-0.073,1.488-0.221
		c0.478-0.151,0.9-0.369,1.267-0.659c0.367-0.284,0.659-0.648,0.88-1.084c0.217-0.44,0.327-0.946,0.327-1.52
		c0-0.794-0.194-1.441-0.582-1.939c-0.385-0.493-0.863-0.907-1.428-1.233c-0.567-0.33-1.157-0.59-1.772-0.79
		c-0.617-0.199-1.153-0.388-1.61-0.564c-0.356-0.139-0.785-0.329-1.281-0.569c-0.497-0.238-0.967-0.56-1.416-0.968
		c-0.446-0.403-0.828-0.912-1.148-1.518c-0.315-0.606-0.485-1.348-0.504-2.22c-0.022-0.654,0.068-1.31,0.267-1.968
		c0.198-0.654,0.526-1.249,0.983-1.786c0.457-0.537,1.062-0.972,1.817-1.312c0.754-0.335,1.678-0.506,2.771-0.506
		c0.793,0,1.618,0.142,2.474,0.418C20.418,119.15,21.373,119.735,22.427,120.633z"/>
	<path fill="#FFFFFF" d="M103.392,139.428v-20.854h2.472v18.499h10.783v2.354H103.392z"/>
	<path fill="#FFFFFF" d="M197.465,118.574h2.473v20.854h-2.473V118.574z"/>
	<path fill="#FFFFFF" d="M294.877,136.21l1.338,1.969c-0.794,0.453-1.642,0.817-2.546,1.087c-0.901,0.266-1.86,0.398-2.875,0.398
		c-1.469,0-2.849-0.277-4.14-0.831c-1.292-0.558-2.418-1.317-3.381-2.28c-0.962-0.965-1.722-2.092-2.276-3.382
		c-0.559-1.29-0.838-2.671-0.838-4.141c0-1.466,0.279-2.854,0.838-4.156c0.555-1.298,1.314-2.434,2.276-3.393
		c0.963-0.966,2.089-1.73,3.381-2.295c1.291-0.568,2.671-0.851,4.14-0.851c1.015,0,1.974,0.129,2.875,0.387
		c0.904,0.261,1.763,0.626,2.577,1.104c-0.219,0.338-0.448,0.672-0.686,0.996c-0.238,0.328-0.463,0.663-0.684,1.001
		c-0.619-0.359-1.262-0.637-1.937-0.836c-0.678-0.198-1.39-0.298-2.146-0.298c-1.13,0-2.188,0.217-3.171,0.658
		c-0.981,0.436-1.848,1.035-2.593,1.801c-0.746,0.765-1.329,1.651-1.757,2.664c-0.426,1.012-0.642,2.086-0.642,3.218
		c0,1.134,0.216,2.204,0.642,3.218c0.428,1.013,1.011,1.889,1.757,2.636c0.745,0.746,1.611,1.337,2.593,1.774
		c0.982,0.437,2.041,0.653,3.171,0.653C292.263,137.312,293.624,136.946,294.877,136.21z"/>
	<path fill="#FFFFFF" d="M375.844,139.428v-20.854h13.238v2.354h-10.764v6.821h9.202v2.356h-9.202v6.968h10.78v2.354H375.844z"/>
</g>
</svg>
