<?xml version="1.0" encoding="utf-8"?>
<!-- Generator: Adobe Illustrator 16.0.0, SVG Export Plug-In . SVG Version: 6.00 Build 0)  -->
<!DOCTYPE svg PUBLIC "-//W3C//DTD SVG 1.1//EN" "http://www.w3.org/Graphics/SVG/1.1/DTD/svg11.dtd">
<svg version="1.1" id="Layer_1" xmlns="http://www.w3.org/2000/svg" xmlns:xlink="http://www.w3.org/1999/xlink" x="0px" y="0px"
	 width="400px" height="400px" viewBox="0 0 400 400" enable-background="new 0 0 400 400" xml:space="preserve">
<g>
	<g>
		<g>
			<path fill="#FFFFFF" d="M50.207,295.302H39.212l-24.879,33.29v6.098h27.821v7.268h-4.262v7.477h16.577v-7.477h-4.262v-7.268
				h4.262v-7.42h-4.262V295.302z M42.154,304.316v22.953H24.861L42.154,304.316z"/>
			<path fill="#FFFFFF" d="M64.744,295.302l-4.62,5.742v42.408l4.611,5.981h26.533l4.729-6.035v-42.061l-4.729-6.036H64.744z
				 M68.007,341.957l0.167-39.18h19.368v39.18H68.007z"/>
			<path fill="#FFFFFF" d="M140.636,334.689v-7.42h-4.262v-31.968H125.38l-24.879,33.29v6.098h27.82v7.268h-4.262v7.477h16.577
				v-7.477h-4.262v-7.268H140.636z M128.321,304.316v22.953h-17.292L128.321,304.316z"/>
		</g>
		<g>
			<path fill="#171742" d="M205.787,310.1h-7.085v-8.007h-20.737v17.223h11.463h5.126v-4.55h6.047v15.205h-6.047v-4.55h-7.2h-9.389
				v17.223h20.737v-8.007h7.085v14.111h-38.247v-6.104h3.744v-40.551h-3.744v-6.104h38.247V310.1z"/>
		</g>
		<g>
			<path fill="#171742" d="M247.199,295.988l4.378,5.586v21.313l-4.378,5.529h-2.362l2.248,14.228h4.492v6.104h-3.514h-7.085h-4.665
				v-6.104h3.686l-2.245-14.228h-13.997v14.228h4.263v6.104h-15.207v-6.104h4.263v-40.551h-4.263v-6.104H247.199z M223.757,322.367
				h20.735v-20.274h-20.735V322.367z"/>
		</g>
		<g>
			<path fill="#171742" d="M292.991,295.988l4.377,5.586v21.313l-4.377,5.529h-2.361l2.245,14.228h4.493v6.104h-3.514h-7.084h-4.666
				v-6.104h3.688l-2.247-14.228h-13.998v14.228h4.264v6.104h-15.207v-6.104h4.263v-40.551h-4.263v-6.104H292.991z M269.547,322.367
				h20.736v-20.274h-20.736V322.367z"/>
		</g>
		<g>
			<path fill="#171742" d="M304.395,301.287l4.264-5.299h25.861l4.378,5.586v41.587l-4.378,5.587h-25.861l-4.264-5.529V301.287z
				 M310.903,342.644h20.909v-40.551h-20.735L310.903,342.644z"/>
		</g>
		<g>
			<path fill="#171742" d="M381.29,295.988l4.377,5.586v21.313l-4.377,5.529h-2.361l2.245,14.228h4.493v6.104h-3.514h-7.085h-4.665
				v-6.104h3.687l-2.247-14.228h-13.996v14.228h4.263v6.104h-15.207v-6.104h4.263v-40.551h-4.263v-6.104H381.29z M357.847,322.367
				h20.735v-20.274h-20.735V322.367z"/>
		</g>
	</g>
	<g>
		<g>
			<path fill="#171742" d="M186.821,219.791c-0.368,0.748-0.738,1.492-1.109,2.232c0.935-0.021,1.874-0.193,2.803-0.519
				C187.941,220.963,187.376,220.391,186.821,219.791z"/>
			<path fill="#171742" d="M181.732,213.006c-0.995,2.058-1.992,4.085-2.995,6.08c1.213,1.122,2.488,1.93,3.822,2.419
				c1.03,0.377,2.088,0.542,3.153,0.519c0.371-0.74,0.741-1.484,1.109-2.232C184.982,217.808,183.259,215.523,181.732,213.006z"/>
			<path fill="#171742" d="M163,202.854c-1.402-0.946-3.612-0.128-4.923,1.837c-1.32,1.948-1.25,4.299,0.158,5.251
				c1.41,0.941,3.611,0.12,4.929-1.832C164.478,206.156,164.405,203.8,163,202.854z"/>
			<path fill="#171742" d="M170.94,225.056c0.373-3.227,2.532-7.633,3.454-11.623c-2.383,4.493-4.06,9.226-5.083,13.889
				c0.541-0.202,1.083-0.405,1.624-0.61C170.865,226.206,170.869,225.651,170.94,225.056z"/>
			<path fill="#FDD675" d="M170.94,225.056c-0.071,0.596-0.075,1.15-0.005,1.655c0.447-0.17,0.893-0.337,1.339-0.506
				C171.853,225.898,171.407,225.52,170.94,225.056z"/>
			<g>
				<path fill="#171742" d="M104.095,208.676c-2.339,0.144-4.074,2.901-3.882,6.16c0.194,3.256,2.254,5.784,4.588,5.646
					c2.349-0.143,4.084-2.898,3.887-6.157C108.495,211.065,106.436,208.536,104.095,208.676z"/>
				<path fill="#BB6C2B" d="M104.267,210.64c-0.091,0.007-0.181,0.02-0.268,0.039c-1.175,0.26-2.022,1.713-1.914,3.423
					c0.071,1.239,0.628,2.289,1.387,2.814c0.361,0.249,0.767,0.382,1.189,0.356c1.319-0.076,2.299-1.627,2.186-3.459
					C106.736,211.983,105.583,210.561,104.267,210.64z"/>
				<path opacity="0.3" fill="#171742" d="M102.857,210.397c0,0,0.573,0.038,1.141,0.281c0.616,0.264,1.226,0.768,1.101,1.736
					c-0.199,1.55-2.169,3.033-1.628,4.501c0.111,0.302,0.32,0.604,0.684,0.905c2.134,1.778,3.451-2.838,3.151-4.345
					C107.012,211.979,106.089,208.722,102.857,210.397z"/>
				<path fill="#171742" d="M141.02,261.322c-3.61-0.743-7.361,2.136-9.125,6.674c-0.294,0.758-0.54,1.558-0.713,2.399
					c-1.212,5.88,1.23,11.352,5.454,12.227c4.228,0.868,8.628-3.193,9.838-9.074c0.525-2.548,0.365-5.019-0.33-7.073
					C145.236,263.789,143.415,261.817,141.02,261.322z"/>
				<path fill="#BB6C2B" d="M140.387,264.888c-0.162-0.033-0.325-0.052-0.488-0.061c-1.736-0.087-3.453,1.239-4.425,3.296
					c-0.268,0.572-0.482,1.197-0.621,1.866c-0.46,2.235,0.022,4.359,1.113,5.654c0.522,0.622,1.184,1.054,1.95,1.214
					c2.377,0.487,4.856-1.791,5.534-5.101c0.339-1.645,0.17-3.232-0.377-4.473C142.519,266.029,141.581,265.132,140.387,264.888z"/>
				<path fill="#171742" d="M125.957,277.117c-1.918-0.396-3.927,1.449-4.482,4.123c-0.551,2.672,0.56,5.162,2.484,5.559
					c1.923,0.405,3.925-1.445,4.48-4.122C128.987,280.002,127.876,277.508,125.957,277.117z"/>
				<path fill="#BB6C2B" d="M125.667,278.736c-0.069-0.015-0.139-0.01-0.208-0.013c-1.016-0.063-2.02,0.925-2.312,2.332
					c-0.211,1.02,0.01,1.99,0.511,2.579c0.237,0.279,0.536,0.474,0.882,0.546c1.083,0.228,2.209-0.815,2.523-2.315
					C127.37,280.361,126.747,278.959,125.667,278.736z"/>
				<path fill="#FDD675" d="M138.018,302.196c-4.12-8.432-9.643-9.926-9.81-9.974c0.139,0.113,5.816,4.446,10.436,17.313
					c2.128,5.949,10.87,24.391,15.719,12.573c1.122-2.72,1.181-5.019,0.603-7.053C150.054,329.712,142.198,310.759,138.018,302.196z
					"/>
				<path fill="#BB6C2B" d="M175.458,215.04c-3.062,5.29-6.238,9.733-9.105,13.755c-6.296,8.836-10.521,14.771-9.34,22.592
					c8.268-7.569,15.122-19.166,21.724-32.301C177.586,218.021,176.492,216.672,175.458,215.04z"/>
				<path fill="#FBBF28" d="M148.691,179.726c-8.47-2.331-15.275,8.332-25.678,14.509c-2.077,1.235-4.088,1.966-6.028,2.292
					c-2.664,0.45-5.193,0.131-7.566-0.744c-0.572-0.211-1.136-0.456-1.69-0.728c0.293,5.551,1.303,10.329,2.316,13.89
					c1.211,4.254,2.427,6.768,2.427,6.768c2.122-0.469,4.026-0.621,5.719-0.564c2.522,0.083,4.576,0.636,6.184,1.32
					c2.629,0.122,5.221,0.861,7.576,2.278c8.312,5.006,10.537,16.557,4.976,25.794c-2.176,3.608-5.218,6.323-8.613,8.005
					c-0.448,0.29-0.901,0.56-1.358,0.807c-2.43,1.318-4.941,2.043-7.149,2.43c-3.795,0.665-6.686,0.339-6.686,0.339
					c-4.696,21.395,16.714,48.425,16.714,48.425c2.147-4.533-1.63-12.319-1.63-12.319s0,0,0.003-0.005
					c0.167,0.048,5.69,1.542,9.81,9.974c4.18,8.563,12.037,27.516,16.948,12.86c-1.927-6.795-10.919-10.635-11.052-17.45
					c-0.168-8.845,9.611-21.74,9.629-29.555c0.003-1.271-0.478-2.647-1.201-4.146c-0.955-1.983-2.334-4.184-3.59-6.649
					c-3.627-7.128-6.201-16.458,5.641-29.086c0,0-6.325,1.279-9.743,5.18c0.102-0.25,3.375-8.113,13.064-13.007
					c7.489-3.778,10.508-11.377,13.546-20.22c-1.46-3.702-4.364-5.987-4.364-5.987c4.568,0.398,7.678,3.83,9.637,7.131
					c0.013,0.015,0.012,0.022,0.018,0.035c0.101,0.159,0.2,0.321,0.298,0.486c0,0-0.001-0.001-0.002-0.002
					C172.964,187.946,157.162,182.058,148.691,179.726z M128.439,282.677c-0.556,2.677-2.558,4.527-4.48,4.122
					c-1.925-0.396-3.035-2.887-2.484-5.559c0.555-2.674,2.564-4.52,4.482-4.123C127.876,277.508,128.987,280.002,128.439,282.677z
					 M146.473,273.548c-1.21,5.881-5.61,9.942-9.838,9.074c-4.224-0.875-6.666-6.347-5.454-12.227
					c0.173-0.842,0.418-1.642,0.713-2.399c1.764-4.538,5.516-7.417,9.125-6.674c2.396,0.495,4.217,2.467,5.124,5.152
					C146.838,268.529,146.999,271,146.473,273.548z M163.164,208.11c-1.318,1.952-3.52,2.773-4.929,1.832
					c-1.408-0.952-1.479-3.303-0.158-5.251c1.311-1.965,3.521-2.783,4.923-1.837C164.405,203.8,164.478,206.156,163.164,208.11z
					 M155.549,202.143c-4.194,6.218-11.208,8.824-15.679,5.811c-4.468-3.005-4.694-10.493-0.502-16.709
					c4.189-6.218,11.211-8.82,15.678-5.813C159.51,188.439,159.738,195.924,155.549,202.143z"/>
				<path fill="#FBBF28" d="M113.121,256.122c0,0,2.89,0.326,6.686-0.339c-0.166-0.42-0.333-0.851-0.505-1.302
					c-2.602-0.134-5.165-0.875-7.497-2.279c-8.309-5-10.534-16.547-4.975-25.79c1.244-2.06,2.77-3.827,4.481-5.28
					c-0.528-3.961-0.952-8.025-1.265-12.186c-1.014-3.561-2.023-8.338-2.316-13.89c-1.737-0.853-3.38-1.991-4.926-3.315
					c0.503,4.525,1.415,8.728,2.959,11.884c0,0-3.6-4.236-6.312-9.964c-2.812,12.614-10.255,40.856,12.069,81.915
					c10.019,18.428,15.089,26.044,17.51,28.337c0.268,0.211,0.533,0.428,0.805,0.635
					C129.835,304.547,108.424,277.517,113.121,256.122z M100.213,214.836c-0.191-3.259,1.543-6.017,3.882-6.16
					c2.341-0.14,4.399,2.39,4.593,5.648c0.197,3.259-1.538,6.015-3.887,6.157C102.467,220.62,100.407,218.092,100.213,214.836z"/>
				<path fill="#FBBF28" d="M112.472,215.714c0,0-1.216-2.514-2.427-6.768c0.313,4.16,0.737,8.225,1.265,12.186
					c2.143-1.819,4.576-3.141,7.117-3.906c-0.082-0.685-0.161-1.376-0.236-2.076C116.499,215.093,114.594,215.245,112.472,215.714z"
					/>
				<path fill="#FBBF28" d="M119.301,254.481c0.172,0.451,0.339,0.882,0.505,1.302c2.208-0.387,4.719-1.111,7.149-2.43
					c-0.023-0.058-0.044-0.111-0.068-0.17C124.439,254.161,121.851,254.611,119.301,254.481z"/>
				<path fill="#FBBF28" d="M124.375,216.47c-1.607-0.685-3.662-1.237-6.184-1.32c0.076,0.7,0.155,1.392,0.236,2.076
					C120.376,216.639,122.386,216.379,124.375,216.47z"/>
				<path opacity="0.2" fill="#171742" d="M118.191,215.149c-1.692-0.057-3.597,0.096-5.719,0.564c0,0-1.216-2.514-2.427-6.768
					c-1.014-3.561-2.023-8.338-2.316-13.89c-1.737-0.853-3.38-1.991-4.926-3.315c-1.641-1.406-3.168-3.023-4.573-4.738
					c-3.193,9.318-7.486,17.277-6.854,26.294c1.147,16.301,9.242,68.077,37.654,90.615c0.268,0.211,0.533,0.428,0.805,0.635
					c0,0-21.411-27.03-16.714-48.425c0,0,2.89,0.326,6.686-0.339c2.208-0.387,4.719-1.111,7.149-2.43
					c-0.023-0.058-0.044-0.111-0.068-0.17c-2.448,0.978-5.036,1.428-7.586,1.298c-2.602-0.134-5.165-0.875-7.497-2.279
					c-8.309-5-10.534-16.547-4.975-25.79c1.244-2.06,2.77-3.827,4.481-5.28c2.143-1.819,4.576-3.141,7.117-3.906
					c1.949-0.587,3.958-0.847,5.947-0.756C122.767,215.785,120.713,215.232,118.191,215.149z M108.688,214.324
					c0.197,3.259-1.538,6.015-3.887,6.157c-2.334,0.139-4.395-2.39-4.588-5.646c-0.191-3.259,1.543-6.017,3.882-6.16
					C106.436,208.536,108.495,211.065,108.688,214.324z"/>
				<path fill="#FBBF28" d="M126.956,253.354c0.457-0.247,0.91-0.517,1.358-0.807c-0.47,0.231-0.944,0.445-1.426,0.637
					C126.911,253.242,126.933,253.296,126.956,253.354z"/>
				<path opacity="0.2" fill="#171742" d="M126.956,253.354c0.457-0.247,0.91-0.517,1.358-0.807
					c-0.47,0.231-0.944,0.445-1.426,0.637C126.911,253.242,126.933,253.296,126.956,253.354z"/>
				<path fill="#BB6C2B" d="M162.24,204.056c-0.056-0.038-0.112-0.069-0.171-0.096c-0.793-0.372-1.911,0.097-2.6,1.122
					c-0.499,0.746-0.642,1.592-0.437,2.226c0.098,0.303,0.273,0.557,0.528,0.73c0.789,0.529,2.028,0.068,2.766-1.034
					C163.068,205.902,163.032,204.587,162.24,204.056z"/>
				<path fill="#171742" d="M155.045,185.431c-4.466-3.006-11.489-0.404-15.678,5.813c-4.191,6.216-3.966,13.704,0.502,16.709
					c4.471,3.014,11.485,0.407,15.679-5.811C159.738,195.924,159.51,188.439,155.045,185.431z"/>
				<path fill="#BB6C2B" d="M152.62,189.247c-0.174-0.119-0.357-0.218-0.544-0.305c-2.509-1.173-6.078,0.321-8.266,3.57
					c-1.596,2.361-2.051,5.043-1.407,7.058c0.31,0.969,0.869,1.785,1.684,2.336c2.51,1.69,6.458,0.228,8.816-3.265
					C155.256,195.141,155.131,190.941,152.62,189.247z"/>
				<path opacity="0.3" fill="#171742" d="M150.379,186.833c0,0,0.998,0.868,1.696,2.108c0.754,1.339,1.159,3.113-0.419,4.703
					c-2.523,2.544-8.185,2.497-9.253,5.925c-0.221,0.712-0.249,1.57-0.006,2.634c1.419,6.209,10.253-0.377,11.805-3.537
					C155.762,195.513,158.621,188.292,150.379,186.833z"/>
				<path fill="#171742" d="M137.111,237.389c-0.213,1.398-0.738,2.817-1.494,4.171c0.425,0.096,0.67,0.142,0.67,0.142
					c-1.668,5.313-4.671,8.695-7.974,10.846c3.395-1.682,6.437-4.396,8.613-8.005c5.562-9.237,3.336-20.788-4.976-25.794
					c-2.355-1.417-4.947-2.156-7.576-2.278c1.589,0.679,2.739,1.489,3.479,2.108C136.716,219.751,138.121,230.702,137.111,237.389z"
					/>
				<path fill="#171742" d="M115.327,245.372c-5.729-3.616-7.227-11.688-3.325-18.17c0.056-0.092,0.115-0.181,0.171-0.271
					c-0.043-0.265-0.088-0.521-0.131-0.789c-0.264-1.65-0.506-3.322-0.732-5.011c-1.711,1.453-3.237,3.221-4.481,5.28
					c-5.559,9.243-3.334,20.79,4.975,25.79c2.332,1.404,4.895,2.146,7.497,2.279c-0.77-2.031-1.589-4.393-2.414-7.083
					C116.03,246.657,115.533,245.993,115.327,245.372z"/>
				<path fill="#171742" d="M112.173,226.932c1.707-2.707,4.109-4.685,6.757-5.785c-0.176-1.275-0.345-2.582-0.503-3.921
					c-2.541,0.766-4.974,2.087-7.117,3.906c0.226,1.688,0.468,3.36,0.732,5.011C112.085,226.41,112.13,226.667,112.173,226.932z"/>
				<path fill="#171742" d="M126.887,253.184c-0.435-1.091-0.895-2.313-1.369-3.668c-2.699,0.628-5.496,0.276-7.951-1.57
					c-0.248-0.187-0.474-0.369-0.68-0.547c0.825,2.69,1.645,5.052,2.414,7.083C121.851,254.611,124.439,254.161,126.887,253.184z"/>
				<path fill="#171742" d="M118.427,217.226c0.158,1.339,0.327,2.646,0.503,3.921c1.994-0.831,4.125-1.168,6.2-0.95
					c-1.318-0.872-2.396-1.316-2.396-1.316c1.934-0.421,3.631-0.5,5.12-0.302c-0.74-0.619-1.891-1.43-3.479-2.108
					C122.386,216.379,120.376,216.639,118.427,217.226z"/>
				<path fill="#171742" d="M136.288,241.701c0,0-0.245-0.046-0.67-0.142c-2.092,3.751-5.979,6.998-10.1,7.956
					c0.474,1.354,0.935,2.577,1.369,3.668c0.482-0.191,0.956-0.405,1.426-0.637C131.617,250.396,134.62,247.014,136.288,241.701z"/>
				<path fill="#BA3E56" d="M128.26,232.229c1.627-2.5,1.866-4.662,1.383-6.476c-0.075,0.303-0.301,0.558-0.625,0.646
					c-0.474,0.136-0.965-0.142-1.098-0.618c-0.127-0.474,0.145-0.97,0.621-1.101c0.283-0.078,0.572-0.006,0.788,0.161
					c-0.572-1.354-1.53-2.483-2.546-3.383c-7.239,7.069-5.936,11.894-2.356,15.055C125.831,235.301,127.172,233.901,128.26,232.229z
					 M122.769,231.448c-0.134-0.477,0.148-0.966,0.624-1.098c0.479-0.129,0.967,0.146,1.101,0.629
					c0.13,0.471-0.149,0.96-0.626,1.092C123.395,232.199,122.902,231.924,122.769,231.448z"/>
				<path fill="#BA3E56" d="M115.705,243.307c-1.269-4.651-2.499-10.102-3.532-16.375c-0.057,0.09-0.116,0.179-0.171,0.271
					c-3.902,6.481-2.403,14.554,3.325,18.17C115.084,244.637,115.248,243.966,115.705,243.307z"/>
				<path fill="#BA3E56" d="M112.173,226.932c1.033,6.273,2.263,11.724,3.532,16.375c0.256-0.371,0.606-0.738,1.028-1.111
					c-0.03-0.057-0.055-0.115-0.073-0.179c-0.126-0.47,0.155-0.967,0.623-1.098c0.306-0.083,0.613-0.001,0.833,0.192
					c1.178-0.851,2.607-1.765,4.075-2.836c-1.205-4.86-2.347-10.56-3.26-17.129C116.283,222.247,113.88,224.225,112.173,226.932z
					 M116.076,235.151c0.136,0.479-0.15,0.969-0.621,1.102c-0.474,0.13-0.975-0.15-1.098-0.624
					c-0.133-0.477,0.149-0.966,0.622-1.095C115.453,234.402,115.943,234.677,116.076,235.151z M116.745,226.399
					c-0.134-0.476,0.148-0.966,0.625-1.097c0.471-0.137,0.964,0.148,1.091,0.624c0.136,0.472-0.145,0.963-0.62,1.1
					C117.369,227.154,116.877,226.877,116.745,226.399z"/>
				<path fill="#BA3E56" d="M124.427,236.513c-3.58-3.161-4.883-7.985,2.356-15.055c-0.553-0.487-1.123-0.909-1.652-1.262
					c-2.075-0.218-4.207,0.119-6.2,0.95c0.914,6.569,2.056,12.269,3.26,17.129C122.935,237.731,123.689,237.149,124.427,236.513z"/>
				<path fill="#171742" d="M128.868,219.558c-0.464,0.396-0.895,0.781-1.308,1.164c0.779,0.259,1.538,0.606,2.267,1.044
					c5.901,3.55,7.48,11.745,3.528,18.299c-0.156,0.26-0.32,0.51-0.488,0.758c1.164,0.36,2.144,0.601,2.751,0.737
					c0.755-1.354,1.28-2.772,1.494-4.171c1.01-6.687-0.395-17.638-9.257-18.811C128.535,219.147,128.868,219.558,128.868,219.558z"
					/>
				<path opacity="0.3" fill="#171742" d="M128.868,219.558c-0.464,0.396-0.895,0.781-1.308,1.164
					c0.779,0.259,1.538,0.606,2.267,1.044c5.901,3.55,7.48,11.745,3.528,18.299c-0.156,0.26-0.32,0.51-0.488,0.758
					c1.164,0.36,2.144,0.601,2.751,0.737c0.755-1.354,1.28-2.772,1.494-4.171c1.01-6.687-0.395-17.638-9.257-18.811
					C128.535,219.147,128.868,219.558,128.868,219.558z"/>
				<path fill="#171742" d="M115.531,245.502c-0.069-0.041-0.135-0.088-0.204-0.13c0.206,0.621,0.703,1.285,1.56,2.026
					c-0.14-0.455-0.28-0.919-0.42-1.395C116.15,245.852,115.837,245.688,115.531,245.502z"/>
				<path opacity="0.3" fill="#171742" d="M115.531,245.502c-0.069-0.041-0.135-0.088-0.204-0.13
					c0.206,0.621,0.703,1.285,1.56,2.026c-0.14-0.455-0.28-0.919-0.42-1.395C116.15,245.852,115.837,245.688,115.531,245.502z"/>
				<path fill="#171742" d="M116.467,246.004c0.14,0.476,0.281,0.939,0.42,1.395c0.206,0.178,0.432,0.36,0.68,0.547
					c2.455,1.847,5.251,2.198,7.951,1.57c-0.306-0.871-0.618-1.795-0.933-2.775C121.868,247.435,119.013,247.23,116.467,246.004z"/>
				<path opacity="0.3" fill="#171742" d="M116.467,246.004c0.14,0.476,0.281,0.939,0.42,1.395c0.206,0.178,0.432,0.36,0.68,0.547
					c2.455,1.847,5.251,2.198,7.951,1.57c-0.306-0.871-0.618-1.795-0.933-2.775C121.868,247.435,119.013,247.23,116.467,246.004z"/>
				<path fill="#171742" d="M124.585,246.74c0.315,0.98,0.627,1.904,0.933,2.775c4.12-0.958,8.008-4.205,10.1-7.956
					c-0.607-0.137-1.587-0.377-2.751-0.737C130.777,243.877,127.777,245.925,124.585,246.74z"/>
				<path opacity="0.3" fill="#171742" d="M124.585,246.74c0.315,0.98,0.627,1.904,0.933,2.775c4.12-0.958,8.008-4.205,10.1-7.956
					c-0.607-0.137-1.587-0.377-2.751-0.737C130.777,243.877,127.777,245.925,124.585,246.74z"/>
				<path fill="#171742" d="M128.868,219.558c0,0-0.333-0.41-1.014-0.979c-1.489-0.198-3.186-0.119-5.12,0.302
					c0,0,1.078,0.444,2.396,1.316c0.822,0.088,1.637,0.261,2.429,0.525C127.973,220.339,128.404,219.953,128.868,219.558z"/>
				<path opacity="0.3" fill="#171742" d="M128.868,219.558c0,0-0.333-0.41-1.014-0.979c-1.489-0.198-3.186-0.119-5.12,0.302
					c0,0,1.078,0.444,2.396,1.316c0.822,0.088,1.637,0.261,2.429,0.525C127.973,220.339,128.404,219.953,128.868,219.558z"/>
				<path fill="#BA3E56" d="M133.354,240.064c3.952-6.554,2.373-14.749-3.528-18.299c-0.729-0.438-1.488-0.785-2.267-1.044
					c-0.27,0.249-0.529,0.492-0.777,0.736c1.017,0.899,1.975,2.029,2.546,3.383c0.146,0.115,0.26,0.271,0.311,0.464
					c0.043,0.152,0.039,0.305,0.003,0.448c0.482,1.813,0.244,3.976-1.383,6.476c-1.087,1.673-2.429,3.072-3.833,4.284
					c2.422,2.137,5.88,3.515,8.44,4.31C133.035,240.574,133.199,240.324,133.354,240.064z M129.636,235.338
					c-0.129-0.477,0.149-0.966,0.625-1.098c0.477-0.133,0.965,0.149,1.1,0.623c0.134,0.474-0.15,0.967-0.623,1.103
					C130.26,236.094,129.771,235.817,129.636,235.338z"/>
				<path opacity="0.3" fill="#171742" d="M133.354,240.064c3.952-6.554,2.373-14.749-3.528-18.299
					c-0.729-0.438-1.488-0.785-2.267-1.044c-0.27,0.249-0.529,0.492-0.777,0.736c1.017,0.899,1.975,2.029,2.546,3.383
					c0.146,0.115,0.26,0.271,0.311,0.464c0.043,0.152,0.039,0.305,0.003,0.448c0.482,1.813,0.244,3.976-1.383,6.476
					c-1.087,1.673-2.429,3.072-3.833,4.284c2.422,2.137,5.88,3.515,8.44,4.31C133.035,240.574,133.199,240.324,133.354,240.064z
					 M129.636,235.338c-0.129-0.477,0.149-0.966,0.625-1.098c0.477-0.133,0.965,0.149,1.1,0.623c0.134,0.474-0.15,0.967-0.623,1.103
					C130.26,236.094,129.771,235.817,129.636,235.338z"/>
				<path fill="#BA3E56" d="M116.467,246.004c-0.254-0.865-0.509-1.768-0.762-2.697c-0.458,0.659-0.621,1.33-0.378,2.065
					c0.068,0.042,0.135,0.089,0.204,0.13C115.837,245.688,116.15,245.852,116.467,246.004z"/>
				<path opacity="0.3" fill="#171742" d="M116.467,246.004c-0.254-0.865-0.509-1.768-0.762-2.697
					c-0.458,0.659-0.621,1.33-0.378,2.065c0.068,0.042,0.135,0.089,0.204,0.13C115.837,245.688,116.15,245.852,116.467,246.004z"/>
				<path fill="#BA3E56" d="M124.585,246.74c-0.794-2.469-1.607-5.288-2.395-8.465c-1.468,1.071-2.896,1.985-4.075,2.836
					c0.125,0.11,0.221,0.256,0.269,0.43c0.132,0.476-0.15,0.969-0.626,1.099c-0.41,0.112-0.834-0.08-1.025-0.444
					c-0.422,0.373-0.772,0.74-1.028,1.111c0.252,0.93,0.508,1.832,0.762,2.697C119.013,247.23,121.868,247.435,124.585,246.74z"/>
				<path opacity="0.3" fill="#171742" d="M124.585,246.74c-0.794-2.469-1.607-5.288-2.395-8.465
					c-1.468,1.071-2.896,1.985-4.075,2.836c0.125,0.11,0.221,0.256,0.269,0.43c0.132,0.476-0.15,0.969-0.626,1.099
					c-0.41,0.112-0.834-0.08-1.025-0.444c-0.422,0.373-0.772,0.74-1.028,1.111c0.252,0.93,0.508,1.832,0.762,2.697
					C119.013,247.23,121.868,247.435,124.585,246.74z"/>
				<path fill="#BA3E56" d="M127.56,220.722c-0.792-0.265-1.607-0.438-2.429-0.525c0.53,0.353,1.099,0.774,1.652,1.262
					C127.031,221.214,127.29,220.971,127.56,220.722z"/>
				<path opacity="0.3" fill="#171742" d="M127.56,220.722c-0.792-0.265-1.607-0.438-2.429-0.525
					c0.53,0.353,1.099,0.774,1.652,1.262C127.031,221.214,127.29,220.971,127.56,220.722z"/>
				<path fill="#BA3E56" d="M132.867,240.822c-2.56-0.795-6.018-2.173-8.44-4.31c-0.737,0.637-1.492,1.219-2.236,1.763
					c0.787,3.177,1.601,5.996,2.395,8.465C127.777,245.925,130.777,243.877,132.867,240.822z M125.47,241.204
					c0.473-0.13,0.965,0.147,1.094,0.615c0.138,0.477-0.141,0.972-0.623,1.103c-0.471,0.133-0.966-0.147-1.094-0.622
					C124.72,241.825,124.996,241.333,125.47,241.204z"/>
				<path opacity="0.3" fill="#171742" d="M132.867,240.822c-2.56-0.795-6.018-2.173-8.44-4.31
					c-0.737,0.637-1.492,1.219-2.236,1.763c0.787,3.177,1.601,5.996,2.395,8.465C127.777,245.925,130.777,243.877,132.867,240.822z
					 M125.47,241.204c0.473-0.13,0.965,0.147,1.094,0.615c0.138,0.477-0.141,0.972-0.623,1.103
					c-0.471,0.133-0.966-0.147-1.094-0.622C124.72,241.825,124.996,241.333,125.47,241.204z"/>
				<path fill="#FFFFFF" d="M129.64,225.305c-0.051-0.192-0.165-0.349-0.311-0.464c0.124,0.293,0.23,0.597,0.314,0.912
					C129.678,225.609,129.683,225.457,129.64,225.305z"/>
				<path opacity="0.3" fill="#171742" d="M129.64,225.305c-0.051-0.192-0.165-0.349-0.311-0.464
					c0.124,0.293,0.23,0.597,0.314,0.912C129.678,225.609,129.683,225.457,129.64,225.305z"/>
				<path fill="#FFFFFF" d="M130.738,235.966c0.473-0.136,0.756-0.629,0.623-1.103c-0.135-0.474-0.624-0.756-1.1-0.623
					c-0.476,0.132-0.754,0.621-0.625,1.098C129.771,235.817,130.26,236.094,130.738,235.966z"/>
				<path fill="#FFFFFF" d="M125.941,242.922c0.481-0.131,0.761-0.626,0.623-1.103c-0.128-0.468-0.621-0.745-1.094-0.615
					c-0.475,0.129-0.75,0.621-0.623,1.096C124.975,242.774,125.471,243.055,125.941,242.922z"/>
				<path fill="#FFFFFF" d="M117.758,242.64c0.476-0.13,0.758-0.623,0.626-1.099c-0.048-0.174-0.144-0.319-0.269-0.43
					c-0.515,0.371-0.982,0.73-1.382,1.084C116.924,242.56,117.349,242.752,117.758,242.64z"/>
				<path opacity="0.3" fill="#171742" d="M117.758,242.64c0.476-0.13,0.758-0.623,0.626-1.099c-0.048-0.174-0.144-0.319-0.269-0.43
					c-0.515,0.371-0.982,0.73-1.382,1.084C116.924,242.56,117.349,242.752,117.758,242.64z"/>
				<g>
					<path fill="#FFFFFF" d="M117.841,227.026c0.475-0.137,0.755-0.628,0.62-1.1c-0.127-0.476-0.62-0.761-1.091-0.624
						c-0.477,0.131-0.759,0.621-0.625,1.097C116.877,226.877,117.369,227.154,117.841,227.026z"/>
					<path fill="#FFFFFF" d="M128.542,224.68c-0.477,0.131-0.748,0.627-0.621,1.101c0.133,0.477,0.625,0.754,1.098,0.618
						c0.323-0.088,0.55-0.343,0.625-0.646c-0.084-0.315-0.19-0.619-0.314-0.912C129.114,224.674,128.824,224.602,128.542,224.68z"/>
					<path fill="#FFFFFF" d="M123.868,232.071c0.477-0.132,0.756-0.621,0.626-1.092c-0.134-0.482-0.622-0.758-1.101-0.629
						c-0.476,0.132-0.758,0.621-0.624,1.098C122.902,231.924,123.395,232.199,123.868,232.071z"/>
					<path fill="#FFFFFF" d="M117.283,240.919c-0.468,0.131-0.749,0.628-0.623,1.098c0.018,0.063,0.043,0.122,0.073,0.179
						c0.4-0.354,0.868-0.713,1.382-1.084C117.896,240.918,117.589,240.836,117.283,240.919z"/>
					<path fill="#FFFFFF" d="M114.979,234.534c-0.473,0.129-0.754,0.618-0.622,1.095c0.123,0.474,0.624,0.754,1.098,0.624
						c0.471-0.133,0.757-0.622,0.621-1.102C115.943,234.677,115.453,234.402,114.979,234.534z"/>
					<path opacity="0.3" fill="#171742" d="M130.738,235.966c0.473-0.136,0.756-0.629,0.623-1.103
						c-0.135-0.474-0.624-0.756-1.1-0.623c-0.476,0.132-0.754,0.621-0.625,1.098C129.771,235.817,130.26,236.094,130.738,235.966z"
						/>
					<path opacity="0.3" fill="#171742" d="M125.941,242.922c0.481-0.131,0.761-0.626,0.623-1.103
						c-0.128-0.468-0.621-0.745-1.094-0.615c-0.475,0.129-0.75,0.621-0.623,1.096C124.975,242.774,125.471,243.055,125.941,242.922z
						"/>
				</g>
				<g>
					<g>
						<path fill="#171742" d="M133.684,248.771c-7.982,6.983-19.545,6.823-25.83-0.356c-6.282-7.182-4.902-18.659,3.076-25.644
							c7.981-6.985,19.547-6.826,25.827,0.353C143.041,230.305,141.662,241.787,133.684,248.771z"/>
						<path fill="#BA3E56" d="M131.682,243.513c-5.663,4.955-13.868,4.839-18.33-0.255c-4.456-5.096-3.477-13.241,2.183-18.198
							c5.667-4.954,13.875-4.843,18.334,0.252C138.328,230.405,137.348,238.554,131.682,243.513z"/>
						<g opacity="0.1">
							<path fill="#FFFFFF" d="M121.969,225.798c-0.012,0.485-0.419,0.864-0.907,0.841c-0.481-0.014-0.859-0.424-0.843-0.906
								c0.019-0.487,0.426-0.864,0.917-0.843C121.617,224.903,121.997,225.315,121.969,225.798z"/>
							<path fill="#FFFFFF" d="M132.626,228.571c-0.015,0.48-0.425,0.865-0.911,0.846c-0.485-0.027-0.863-0.433-0.835-0.918
								c0.013-0.479,0.421-0.861,0.905-0.838C132.275,227.679,132.649,228.085,132.626,228.571z"/>
							<path fill="#FFFFFF" d="M126.105,232.337c-0.021,0.486-0.427,0.861-0.91,0.844c-0.485-0.022-0.869-0.431-0.839-0.913
								c0.015-0.486,0.426-0.861,0.911-0.841C125.749,231.442,126.124,231.854,126.105,232.337z"/>
							<path fill="#FFFFFF" d="M131.37,238.04c-0.018,0.486-0.428,0.861-0.915,0.84c-0.481-0.014-0.858-0.422-0.84-0.911
								c0.02-0.485,0.429-0.858,0.913-0.84C131.011,237.146,131.395,237.558,131.37,238.04z"/>
							<path fill="#FFFFFF" d="M124.797,243.119c-0.024,0.489-0.431,0.865-0.915,0.843c-0.485-0.017-0.861-0.422-0.844-0.909
								c0.024-0.483,0.434-0.861,0.915-0.841C124.437,242.229,124.811,242.637,124.797,243.119z"/>
							<path fill="#FFFFFF" d="M117.217,240.403c-0.021,0.483-0.433,0.857-0.912,0.845c-0.485-0.021-0.863-0.434-0.846-0.918
								c0.019-0.484,0.428-0.863,0.914-0.84C116.856,239.507,117.238,239.918,117.217,240.403z"/>
							<path fill="#FFFFFF" d="M116.97,233.728c-0.02,0.482-0.428,0.861-0.913,0.845c-0.48-0.021-0.859-0.429-0.839-0.913
								c0.016-0.486,0.431-0.859,0.911-0.844C116.61,232.834,116.987,233.244,116.97,233.728z"/>
						</g>
					</g>
					<path opacity="0.3" fill="#171742" d="M128.002,220.59c0,0,9.157,7.638,1.253,14.154c-7.9,6.525-20.074,4.053-14.661,11.607
						c5.42,7.558,18.033,2.823,21.443-4.153C139.449,235.218,141.477,221.8,128.002,220.59z"/>
				</g>
				<path fill="#171742" d="M132.44,184.069c-25.13,15.867-37.518-1.511-39.891-5.434c-0.144-0.251-0.289-0.503-0.427-0.751
					c-0.669,3.883-1.086,7.386-0.722,10.598c-0.092,0.81-0.63,3.202-0.928,4.527c-1.523,6.748-4.06,18.047-3.23,32.828
					c0.996,17.563,6.532,35.729,16.46,53.989c5.678,10.438,10.254,18.31,13.604,23.376c3.83,5.789,6.675,9.118,10.724,10.133
					c0.854,0.215,1.713,0.313,2.565,0.298c1.826,5.372,7.137,17.24,15.244,20.401c3.23,1.261,6.662,1.151,9.657-0.315
					c0.464-0.226,0.923-0.478,1.365-0.771c2.471-1.618,4.341-4.067,5.739-7.454c5.011-12.221-2.634-20.279-6.744-24.613
					c-1.022-1.075-2.699-2.844-3.041-3.611c0.056-2.637,2.375-7.711,4.248-11.799c2.759-6.027,5.369-11.727,5.383-17.397
					c0.002-3.307-1.328-5.998-2.61-8.595c-0.063-0.13-0.129-0.264-0.193-0.395c10.405-8.412,18.445-21.852,26.05-37.025
					c0.895-0.124,1.832-0.306,2.822-0.554c0,0-7.115-7.346-9.324-23.687C177.396,184.532,160.599,166.289,132.44,184.069z
					 M157.014,251.387c-1.181-7.82,3.043-13.756,9.34-22.592c2.231-3.131,4.65-6.523,7.057-10.364
					c1.183,1.213,2.563,2.198,4.204,2.868C171.355,233.519,164.813,244.245,157.014,251.387z M167.951,208.703
					c-2.333,5.039-5.323,9.162-10.236,11.641c-9.688,4.894-12.962,12.757-13.064,13.007c3.418-3.9,9.743-5.18,9.743-5.18
					c-11.841,12.628-9.268,21.958-5.641,29.086c1.256,2.466,2.635,4.666,3.59,6.649c0.723,1.498,1.204,2.874,1.201,4.146
					c-0.019,7.814-9.798,20.71-9.629,29.555c0.132,6.815,9.125,10.655,11.052,17.45c0.578,2.034,0.519,4.333-0.603,7.053
					c-4.849,11.817-13.591-6.624-15.719-12.573c-4.62-12.867-10.296-17.2-10.436-17.313c-0.003,0.005-0.003,0.005-0.003,0.005
					s3.777,7.786,1.63,12.319c-0.228-0.131-0.497-0.343-0.805-0.635c-2.421-2.293-7.491-9.909-17.51-28.337
					c-20.086-36.942-16.074-63.508-13.02-77.65c1.339,0.95,3.034,1.898,4.995,2.682c1.304,1.884,2.267,3.018,2.267,3.018
					c-0.389-0.793-0.736-1.653-1.049-2.567c6.315,2.179,14.89,2.526,22.877-3.603c14.345-11.007,21.667-13.149,33.151-3.81
					C164.204,196.46,165.731,202.741,167.951,208.703z"/>
				<path opacity="0.3" fill="#171742" d="M137.999,263.778c0,0,1.005,0.341,1.9,1.049c0.799,0.633,1.507,1.562,1.335,2.805
					c-0.036,0.259-0.107,0.526-0.225,0.808c-1.089,2.648-5.299,4.335-5.043,7.204c0.053,0.594,0.293,1.237,0.796,1.952
					c2.937,4.165,7.469-3.399,7.663-6.211c0.078-1.138,0.112-2.83-0.306-4.348C143.502,264.796,141.902,262.932,137.999,263.778z"/>
				<path opacity="0.3" fill="#171742" d="M124.577,278.23c0,0,0.469,0.159,0.882,0.493c0.433,0.349,0.801,0.885,0.493,1.63
					c-0.5,1.204-2.415,1.976-2.294,3.281c0.025,0.27,0.129,0.561,0.356,0.881c1.338,1.897,3.404-1.543,3.489-2.823
					C127.588,280.409,127.555,277.58,124.577,278.23z"/>
				<path opacity="0.3" fill="#171742" d="M161.536,203.296c0,0,0.312,0.273,0.533,0.664c0.237,0.421,0.367,0.979-0.125,1.48
					c-0.798,0.801-2.578,0.788-2.911,1.867c-0.069,0.223-0.081,0.489-0.005,0.824c0.444,1.946,3.225-0.124,3.715-1.112
					C163.228,206.02,164.128,203.754,161.536,203.296z"/>
			</g>
		</g>
		<path fill="#BB6C2B" d="M292.844,105.574c-9.716-10.881-21.592-8.078-33.908-12.691c-23.305-8.739-24.556-16.166-36.017-25.786
			c-7.88-6.613-14.455-2.127-17.796,1.317c7.44,1.628,12.557,6.696,13.52,7.718l5.923,6.24c10.915,3.716,21.181,9.11,28.724,13.072
			c1.567,0.817,3.178,1.67,4.6,2.393c16.834,8.591,24.092,20.227,24.39,20.724l4.901,8.01c9.099,6.84,15.479,15.149,18.682,23.933
			c7.191-13.368,18.382-18.592,29.457-19.935C329.189,108.522,305.872,120.179,292.844,105.574z"/>
		<path fill="#BB6C2B" d="M209.936,199.547c-3.176-0.61-7.467,0.971-8.86,4.614c-0.863,2.256-1.068,4.766-1.028,7.34
			c4.791-2.512,9.624-5.009,14.479-7.421c-0.196-0.81-0.496-1.526-0.898-2.141C212.594,200.351,211.049,199.767,209.936,199.547z"/>
		<path fill="#BB6C2B" d="M205.123,68.415c3.341-3.445,9.916-7.931,17.796-1.317c11.461,9.62,12.712,17.047,36.017,25.786
			c12.316,4.613,24.192,1.81,33.908,12.691c13.028,14.605,36.346,2.948,42.475,24.995c0,0,0,0,0.01,0.01
			c11.226-1.369,22.329,1.242,29.021,3.373c-9.077-15.378-33.275-28.345-61.837-35.638c-54.43-13.899-65.764-31.679-83.257-37.792
			c-7.908-2.758-12.548,1.83-15.256,7.685c0.193,0.032,0.391,0.057,0.583,0.095C204.763,68.337,204.944,68.376,205.123,68.415z"/>
		<path opacity="0.4" fill="#FBBF28" d="M205.123,68.415c3.341-3.445,9.916-7.931,17.796-1.317
			c11.461,9.62,12.712,17.047,36.017,25.786c12.316,4.613,24.192,1.81,33.908,12.691c13.028,14.605,36.346,2.948,42.475,24.995
			c0,0,0,0,0.01,0.01c11.226-1.369,22.329,1.242,29.021,3.373c-9.077-15.378-33.275-28.345-61.837-35.638
			c-54.43-13.899-65.764-31.679-83.257-37.792c-7.908-2.758-12.548,1.83-15.256,7.685c0.193,0.032,0.391,0.057,0.583,0.095
			C204.763,68.337,204.944,68.376,205.123,68.415z"/>
		<path fill="#171742" d="M195.692,74.512c2.486-1.042,4.673-1.573,6.601-1.722c0.146-0.487,0.301-0.975,0.467-1.462
			c0,0,0,0-0.001-0.005c0.359-1.056,0.771-2.105,1.24-3.117c-0.699-0.117-1.399-0.21-2.096-0.256
			c-1.69-0.104-3.38-0.007-5.028,0.296c-0.792,0.029-1.744,0.114-2.818,0.303c-0.863,2.538-1.477,5.059-1.916,7.357
			C193.356,75.456,194.542,74.994,195.692,74.512z"/>
		<path fill="#171742" d="M294.081,180.848c0.896-0.101,1.789-0.2,2.672-0.292c0.105-1.057,0.285-2.207,0.509-3.386
			C296.301,178.489,295.233,179.72,294.081,180.848z"/>
		<path fill="#FBBF28" d="M242.311,192.057c0.004,0.036,0.009,0.073,0.013,0.109c0.021-0.047,0.046-0.092,0.067-0.138
			C242.363,192.037,242.336,192.047,242.311,192.057z"/>
		<polygon fill="#FBBF28" points="159.023,123.257 159.024,123.255 159.022,123.255 		"/>
		<path fill="#FBBF28" d="M259.022,151.601c3.635-3.457,8.123-5.107,11.881-4.759c-15.015-13.994-46.015-25.459-46.015-25.459
			c15.865-7.354,30.858-6.389,30.858-6.389s-10.937-7.526-36.563-12.976c0.391,1.031,0.598,2.113,0.582,3.231
			c-0.096,6.517-7.518,11.692-16.583,11.569c-9.069-0.133-16.349-5.517-16.253-12.029c0.033-2.387,1.055-4.595,2.78-6.426
			c-2.181,0.072-4.208,0.26-6.087,0.55c-0.463,0.073-0.917,0.149-1.363,0.232c0.179,0.18,0.339,0.375,0.476,0.584
			c0.148,0.228,0.275,0.472,0.366,0.735c0.833,2.414-1.21,5.313-4.576,6.477c-1.33,0.461-2.664,0.575-3.845,0.401
			c-1.8-0.266-3.242-1.208-3.746-2.662c-0.136-0.392-0.188-0.795-0.179-1.203c-11.516,7.281-51.289,4.198-52.282,40.218
			c-0.387,0.535,11.578,14.648,11.2,15.178c2.111,1.096,4.585,1.854,7.488,2.171c14.544,1.597,28.871-3.755,35.357,4.657
			s17.472,25.593,11.158,41.788c0,0.002,0,0.003-0.001,0.004c-0.454,4.07-2.089,8.697-2.085,11.946
			c0.518,0.404,1.002,0.729,1.458,0.985c3.166,1.771,4.86,0.047,5.825-3.047c1.059-3.391,1.242-8.428,1.524-12.31
			c0.575-7.777,7.674-11.55,7.95-11.696c0.004-0.006,0.009-0.006,0.009-0.006c10.518-9.741,24.964-2.947,27.547,5.272
			c0.262,0.835,0.402,1.683,0.402,2.531c0.008,2.465-0.319,5.09-0.743,7.712c-1.028,6.335-2.647,12.656-1.617,16.664
			c12.141,5.725,11.701-8.23,11.899-21.232c0.02-1.296,0.045-2.582,0.091-3.84c0.088-2.475,0.358-4.578,0.738-6.375
			c1.717-8.13,5.726-9.84,5.852-9.891l0.003-0.001c0,0-0.786,4.076-0.218,7.851c0.025-0.01,0.053-0.02,0.08-0.028
			c4.137-9.625,19.496-11.495,29.293-19.333c0.243-0.811,0.742-1.63,1.479-2.327c0.68-0.649,1.456-1.089,2.22-1.313
			c0.836-1.029,1.592-2.137,2.231-3.355c1.546-2.945,1.594-5.943,0.54-8.924c-0.487,3.208-2.284,6.635-5.232,9.434
			c-5.619,5.348-13.282,6.41-17.124,2.375C251.958,164.554,253.403,156.947,259.022,151.601z"/>
		<path fill="#171742" d="M139.862,117.863c0.734-0.814,1.452-1.635,2.125-2.473c0.011-0.012,0.021-0.024,0.024-0.03
			c0.011-0.018,0.019-0.024,0.019-0.024c1.735-2.151,3.233-4.384,4.343-6.697c5.813-12.06,12.846-11.604,12.846-11.604
			c-4.364,8.258-0.855,13.447-0.855,13.447c1.447-13.52,18.277-20.234,26.455-24.933c2.21-1.956,4.443-3.906,6.715-5.85
			c0.151-1.155,0.349-2.436,0.608-3.794c-17.011,6.302-39.797,10.353-51.668,35.484c-1.314,2.778-2.752,5.281-4.281,7.561
			c0.006-0.002,0.012-0.004,0.018-0.006C137.418,118.476,138.64,118.121,139.862,117.863z"/>
		<path fill="#171742" d="M194.353,89.323c0.983-0.853,1.974-1.709,2.976-2.568c-4.061,1.701-6.609,3.449-6.753,3.549
			C191.809,89.893,193.069,89.57,194.353,89.323z"/>
		<path fill="#171742" d="M297.262,177.171c3.634-4.988,5.718-11.237,4.925-18.017c-0.565,1.715-1.087,3.514-1.545,5.422
			C300.642,164.576,298.382,171.264,297.262,177.171z"/>
		<path opacity="0.2" fill="#171742" d="M297.262,177.171c3.634-4.988,5.718-11.237,4.925-18.017
			c-0.565,1.715-1.087,3.514-1.545,5.422C300.642,164.576,298.382,171.264,297.262,177.171z"/>
		<path fill="#171742" d="M184.818,85.55c1.314-0.756,2.407-1.459,3.175-2.13c4.064-3.554,8.712-4.115,12.752-3.569
			c0.304-2.014,0.787-4.513,1.547-7.061c-1.927,0.149-4.115,0.68-6.601,1.722c-1.15,0.481-2.336,0.944-3.551,1.394
			c-0.259,1.359-0.457,2.639-0.608,3.794C189.262,81.645,187.028,83.595,184.818,85.55z"/>
		<path fill="#171742" d="M292.611,140.63c-22.86-23.879-17.203-28.002-32.416-36.79c-15.201-8.796-44.252-19.278-44.252-19.278
			s-2.194-12.66-13.65-11.772c-0.76,2.548-1.243,5.047-1.547,7.061c5.641,0.763,10.094,3.692,10.094,3.692
			c-5.264,0.28-9.964,1.727-13.511,3.212c-1.002,0.858-1.993,1.715-2.976,2.568c19.823-3.796,45.199,11.241,58.648,18.103
			c14.316,7.307,20.093,16.752,20.093,16.752c-12.25-2.807-17.382-1.45-17.382-1.45c46.84,15.429,48.273,47.154,33.267,58.74
			c1.723-0.224,3.425-0.43,5.103-0.621c1.152-1.128,2.22-2.359,3.181-3.677c1.12-5.907,3.38-12.595,3.38-12.595
			c0.458-1.908,0.979-3.707,1.545-5.422C301.493,153.221,298.602,146.885,292.611,140.63z"/>
		<path fill="#FBBF28" d="M151.093,118.383c10.216-11.033,21.496-22.01,33.726-32.833c-8.178,4.699-25.008,11.414-26.455,24.933
			c0,0-3.509-5.189,0.855-13.447c0,0-7.033-0.457-12.846,11.604c-1.11,2.313-2.608,4.545-4.343,6.697c0,0-0.007,0.006-0.019,0.024
			c-0.003,0.006-0.013,0.019-0.024,0.03c-0.673,0.838-1.391,1.659-2.125,2.473C143.74,117.046,147.618,117.268,151.093,118.383z"/>
		<path fill="#FBBF28" d="M266.596,185.326c2.207,0.032,4.563,0.159,7.082,0.397c5.928,0.56,11.223-1.103,15.301-4.254
			C281.791,182.408,274.253,183.663,266.596,185.326z"/>
		<path fill="#FBBF28" d="M187.994,83.42c-0.768,0.67-1.861,1.374-3.175,2.13c-12.23,10.823-23.509,21.8-33.726,32.833
			c3.043,0.977,5.775,2.635,7.93,4.872c0.001,0,0.002,0,0.002,0c0.002-0.001,0.003-0.002,0.003-0.003
			c0.001-0.064,0.211-12.493,11.728-19.774c0.048-2.106,1.932-4.299,4.751-5.279c2.652-0.919,5.333-0.472,6.754,0.947
			c0.446-0.083,0.9-0.16,1.363-0.232c3.44-3.162,7.015-6.359,10.729-9.59c-1.283,0.247-2.543,0.569-3.777,0.981
			c0.144-0.101,2.692-1.849,6.753-3.549c0.969-0.831,1.944-1.663,2.932-2.496c0,0,0.091-1.793,0.485-4.408
			C196.706,79.306,192.058,79.867,187.994,83.42z"/>
		<path fill="#FBBF28" d="M242.391,192.028c-0.021,0.046-0.046,0.09-0.067,0.138c0.062-0.062,0.128-0.12,0.19-0.18
			C242.473,192,242.432,192.014,242.391,192.028z"/>
		<path opacity="0.2" fill="#171742" d="M242.391,192.028c-0.021,0.046-0.046,0.09-0.067,0.138c0.062-0.062,0.128-0.12,0.19-0.18
			C242.473,192,242.432,192.014,242.391,192.028z"/>
		<path fill="#FBBF28" d="M197.329,86.755c3.547-1.485,8.248-2.932,13.511-3.212c0,0-4.453-2.929-10.094-3.692
			c-0.395,2.615-0.485,4.408-0.485,4.408C199.273,85.093,198.298,85.924,197.329,86.755z"/>
		<path opacity="0.2" fill="#171742" d="M197.329,86.755c3.547-1.485,8.248-2.932,13.511-3.212c0,0-4.453-2.929-10.094-3.692
			c-0.395,2.615-0.485,4.408-0.485,4.408C199.273,85.093,198.298,85.924,197.329,86.755z"/>
		<path fill="#FBBF28" d="M189.71,98.363c2.978-3.166,8.06-5.212,13.805-5.131c7.507,0.107,13.782,3.819,15.669,8.786
			c25.626,5.45,36.563,12.976,36.563,12.976s-14.993-0.966-30.858,6.389c0,0,31,11.465,46.015,25.459
			c2.049,0.188,3.885,0.964,5.239,2.387c1.823,1.918,2.454,4.644,2.011,7.548c1.054,2.981,1.006,5.979-0.54,8.924
			c-0.64,1.218-1.396,2.326-2.231,3.355c1.172-0.343,2.314-0.169,3.031,0.585c1.176,1.238,0.735,3.569-0.989,5.201
			c-1.72,1.649-4.078,1.966-5.254,0.738c-0.678-0.717-0.818-1.791-0.486-2.885c-9.797,7.839-25.156,9.708-29.293,19.333
			c0.041-0.015,0.082-0.029,0.123-0.042c4.117-3.938,11.681-6.837,24.082-6.66c7.657-1.664,15.195-2.918,22.383-3.857
			c15.007-11.586,13.573-43.312-33.267-58.74c0,0,5.132-1.356,17.382,1.45c0,0-5.776-9.446-20.093-16.752
			c-13.449-6.862-38.825-21.899-58.648-18.103c-3.715,3.23-7.289,6.428-10.729,9.59C185.503,98.623,187.53,98.435,189.71,98.363z"/>
		<path opacity="0.2" fill="#171742" d="M255.712,122.729c0,0,5.132-1.356,17.382,1.45c0,0-5.776-9.446-20.093-16.752
			c-13.449-6.862-38.825-21.899-58.648-18.103c-1.283,0.247-2.543,0.569-3.777,0.981c0.144-0.101,2.692-1.849,6.753-3.549
			c0.969-0.831,1.944-1.663,2.932-2.496c0,0,0.091-1.793,0.485-4.408c-4.04-0.546-8.688,0.015-12.752,3.569
			c-0.768,0.67-1.861,1.374-3.175,2.13c-8.178,4.699-25.008,11.414-26.455,24.933c0,0-3.509-5.189,0.855-13.447
			c0,0-7.033-0.457-12.846,11.604c-1.11,2.313-2.608,4.545-4.343,6.697c0,0-0.007,0.006-0.019,0.024
			c-0.003,0.006-0.013,0.019-0.024,0.03c-0.673,0.838-1.391,1.659-2.125,2.473c3.877-0.817,7.756-0.596,11.23,0.52
			c3.043,0.977,5.775,2.635,7.93,4.872c0.001,0,0.002,0,0.002,0c0.002-0.001,0.003-0.002,0.003-0.003
			c0.001-0.064,0.211-12.493,11.728-19.774c0.048-2.106,1.932-4.299,4.751-5.279c2.652-0.919,5.333-0.472,6.754,0.947
			c0.446-0.083,0.9-0.16,1.363-0.232c1.88-0.29,3.907-0.478,6.087-0.55c2.978-3.166,8.06-5.212,13.805-5.131
			c7.507,0.107,13.782,3.819,15.669,8.786c25.626,5.45,36.563,12.976,36.563,12.976s-14.993-0.966-30.858,6.389
			c0,0,31,11.465,46.015,25.459c2.049,0.188,3.885,0.964,5.239,2.387c1.823,1.918,2.454,4.644,2.011,7.548
			c1.054,2.981,1.006,5.979-0.54,8.924c-0.64,1.218-1.396,2.326-2.231,3.355c1.172-0.343,2.314-0.169,3.031,0.585
			c1.176,1.238,0.735,3.569-0.989,5.201c-1.72,1.649-4.078,1.966-5.254,0.738c-0.678-0.717-0.818-1.791-0.486-2.885
			c-9.797,7.839-25.156,9.708-29.293,19.333c0.041-0.015,0.082-0.029,0.123-0.042c4.117-3.938,11.681-6.837,24.082-6.66
			c2.207,0.032,4.563,0.159,7.082,0.397c5.928,0.56,11.223-1.103,15.301-4.254C303.985,169.883,302.552,138.157,255.712,122.729z"/>
		<polygon fill="#FBBF28" points="159.027,123.254 159.027,123.252 159.024,123.255 		"/>
		<polygon opacity="0.2" fill="#171742" points="159.027,123.254 159.027,123.252 159.024,123.255 		"/>
		<path fill="#171742" d="M182.26,99.146c-1.42-1.419-4.102-1.866-6.754-0.947c-2.819,0.98-4.703,3.173-4.751,5.279
			c-0.008,0.408,0.043,0.812,0.179,1.203c0.504,1.454,1.946,2.396,3.746,2.662c1.182,0.174,2.516,0.06,3.845-0.401
			c3.366-1.164,5.409-4.063,4.576-6.477c-0.091-0.263-0.218-0.507-0.366-0.735C182.599,99.52,182.438,99.326,182.26,99.146z"/>
		<path fill="#BB6C2B" d="M179.364,99.798c-0.75-0.191-1.648-0.159-2.544,0.152c-0.884,0.305-1.606,0.828-2.075,1.436
			c-0.207,0.268-0.365,0.551-0.466,0.841c-0.157,0.456-0.178,0.925-0.025,1.367c0.34,0.98,1.436,1.543,2.73,1.535
			c0.495-0.003,1.017-0.087,1.539-0.268c1.878-0.651,3.025-2.264,2.577-3.613c-0.002-0.008-0.003-0.018-0.006-0.024
			c-0.033-0.095-0.074-0.185-0.121-0.272C180.67,100.382,180.087,99.984,179.364,99.798z"/>
		<path fill="#171742" d="M203.516,93.232c-5.745-0.081-10.828,1.965-13.805,5.131c-1.725,1.831-2.747,4.039-2.78,6.426
			c-0.096,6.512,7.184,11.896,16.253,12.029c9.065,0.124,16.487-5.052,16.583-11.569c0.016-1.118-0.191-2.2-0.582-3.231
			C217.298,97.051,211.022,93.339,203.516,93.232z"/>
		<path fill="#BB6C2B" d="M211.597,100.551c-1.648-1.195-3.915-1.954-6.429-1.989c-1.257-0.017-2.458,0.147-3.556,0.46
			c-1.909,0.542-3.498,1.531-4.522,2.791c-0.774,0.953-1.23,2.058-1.246,3.247c-0.054,3.663,4.036,6.688,9.132,6.759
			c5.1,0.068,9.271-2.839,9.329-6.503c0.003-0.254-0.02-0.504-0.055-0.752C214.025,103.011,213.054,101.608,211.597,100.551z"/>
		<path fill="#171742" d="M276.143,149.228c-1.354-1.422-3.19-2.199-5.239-2.387c-3.758-0.348-8.246,1.303-11.881,4.759
			c-5.619,5.346-7.064,12.953-3.226,16.984c3.842,4.036,11.505,2.974,17.124-2.375c2.948-2.799,4.745-6.226,5.232-9.434
			C278.597,153.872,277.966,151.146,276.143,149.228z"/>
		<path fill="#BB6C2B" d="M272.846,152.54c-0.151-0.158-0.313-0.298-0.483-0.428c-2.274-1.741-6.203-1.03-9.146,1.76
			c-2.132,2.03-3.188,4.636-2.987,6.813c0.095,1.047,0.479,1.997,1.181,2.731c2.151,2.27,6.462,1.675,9.619-1.33
			C274.189,159.08,275.001,154.81,272.846,152.54z"/>
		<path fill="#171742" d="M278.413,169.641c-0.717-0.754-1.859-0.928-3.031-0.585c-0.764,0.224-1.54,0.663-2.22,1.313
			c-0.736,0.697-1.235,1.517-1.479,2.327c-0.332,1.094-0.191,2.168,0.486,2.885c1.176,1.228,3.534,0.911,5.254-0.738
			C279.148,173.209,279.589,170.878,278.413,169.641z M274.445,171.063c0.908-0.865,2.118-1.069,2.813-0.529
			c0.048,0.038,0.099,0.066,0.141,0.112c0.663,0.704,0.411,2.008-0.559,2.932c-0.967,0.918-2.287,1.101-2.946,0.408
			c-0.218-0.227-0.329-0.522-0.357-0.845C273.475,172.474,273.79,171.68,274.445,171.063z"/>
		<path fill="#BB6C2B" d="M277.258,170.535c-0.694-0.54-1.904-0.336-2.813,0.529c-0.655,0.617-0.971,1.411-0.909,2.078
			c0.028,0.323,0.14,0.619,0.357,0.845c0.659,0.693,1.979,0.51,2.946-0.408c0.97-0.924,1.222-2.229,0.559-2.932
			C277.356,170.601,277.306,170.572,277.258,170.535z"/>
		<path fill="#171742" d="M136.192,118.951c-6.66,2.591-11.381,7.864-13.156,13.806
			C127.738,129.142,132.274,124.789,136.192,118.951z"/>
		<path fill="#171742" d="M136.039,121.835c0.007-0.006,0.008-0.011,0.022-0.018c1.308-1.285,2.584-2.605,3.801-3.954
			c-1.222,0.258-2.444,0.612-3.653,1.082c-0.006,0.002-0.012,0.004-0.018,0.006c-3.917,5.838-8.454,10.19-13.156,13.806
			c-0.644,2.159-0.901,4.405-0.718,6.642C126.791,132.71,132.07,126.338,136.039,121.835z"/>
		<path fill="#FFFFFF" d="M216.155,141.401c0.407-0.566,0.262-1.361-0.314-1.75c-0.578-0.407-1.367-0.263-1.767,0.318
			c-0.394,0.574-0.249,1.365,0.326,1.754C214.976,142.13,215.766,141.98,216.155,141.401z"/>
		<path fill="#FFFFFF" d="M216.139,152.564c0.396-0.576,0.256-1.367-0.317-1.757c-0.575-0.4-1.363-0.262-1.76,0.319
			c-0.408,0.566-0.259,1.361,0.317,1.761C214.954,153.282,215.738,153.138,216.139,152.564z"/>
		<path fill="#FFFFFF" d="M198.755,153.753c-0.575-0.401-1.365-0.256-1.763,0.319c-0.106,0.156-0.17,0.327-0.201,0.502
			c0.761,0.113,1.589,0.295,2.476,0.517C199.384,154.597,199.198,154.057,198.755,153.753z"/>
		<path fill="#FFFFFF" d="M203.937,147.195c0.396-0.575,0.253-1.366-0.319-1.76c-0.574-0.391-1.366-0.258-1.765,0.323
			c-0.397,0.575-0.251,1.365,0.319,1.762C202.749,147.914,203.539,147.77,203.937,147.195z"/>
		<path fill="#FFFFFF" d="M218.145,163.578c0.402-0.564,0.254-1.365-0.321-1.761c-0.574-0.396-1.361-0.257-1.762,0.319
			c-0.399,0.581-0.255,1.37,0.321,1.76C216.956,164.298,217.746,164.158,218.145,163.578z"/>
		<path opacity="0.3" fill="#171742" d="M218.145,163.578c0.402-0.564,0.254-1.365-0.321-1.761
			c-0.574-0.396-1.361-0.257-1.762,0.319c-0.399,0.581-0.255,1.37,0.321,1.76C216.956,164.298,217.746,164.158,218.145,163.578z"/>
		<path fill="#FFFFFF" d="M206.211,164.688c0.39-0.579,0.25-1.365-0.327-1.76c-0.569-0.395-1.359-0.251-1.764,0.318
			c-0.397,0.581-0.25,1.365,0.327,1.76C205.02,165.408,205.805,165.263,206.211,164.688z"/>
		<path opacity="0.3" fill="#171742" d="M206.211,164.688c0.39-0.579,0.25-1.365-0.327-1.76c-0.569-0.395-1.359-0.251-1.764,0.318
			c-0.397,0.581-0.25,1.365,0.327,1.76C205.02,165.408,205.805,165.263,206.211,164.688z"/>
		<path fill="#FFFFFF" d="M197.315,155.843c0.573,0.385,1.364,0.247,1.763-0.323c0.093-0.134,0.152-0.279,0.189-0.428
			c-0.887-0.222-1.714-0.403-2.476-0.517C196.71,155.049,196.895,155.551,197.315,155.843z"/>
		<path opacity="0.3" fill="#171742" d="M197.315,155.843c0.573,0.385,1.364,0.247,1.763-0.323c0.093-0.134,0.152-0.279,0.189-0.428
			c-0.887-0.222-1.714-0.403-2.476-0.517C196.71,155.049,196.895,155.551,197.315,155.843z"/>
		<path fill="#FDD675" d="M223.945,225.546v0.006c0.758,2.936,2.915,4.634,7.757,4.195c10.544-0.939,9.625-11.073,8.126-19.683
			c0,0-0.002-0.01-0.011-0.028c-0.088-0.295-0.864-3.007-1.337-6.688c-0.881,0.308-1.76,0.628-2.636,0.966
			C235.646,217.315,236.086,231.271,223.945,225.546z"/>
		<path fill="#FDD675" d="M235.936,200.473c-0.046,1.258-0.071,2.544-0.091,3.84c0.876-0.338,1.755-0.658,2.636-0.966
			c-0.374-2.929-0.552-6.47-0.034-9.914c-0.594,0.218-1.184,0.439-1.772,0.664C236.294,195.895,236.023,197.999,235.936,200.473z"/>
		<path fill="#FDD675" d="M242.525,184.207c-0.126,0.051-4.135,1.761-5.852,9.891c0.589-0.225,1.179-0.446,1.772-0.664
			C238.959,190.022,240.152,186.711,242.525,184.207z"/>
		<path fill="#FDD675" d="M190.397,205.069c-0.282,3.882-0.465,8.919-1.524,12.31c-0.965,3.094-2.659,4.817-5.825,3.047
			c-0.424,0.221-0.847,0.438-1.271,0.659c0.437,1.667,1.71,2.672,4.502,2.544c5.206-0.247,6.137-3.651,6.141-8.116
			c0.007-5.267-1.273-12.007,1.645-16.798c1.315-2.16,2.751-3.924,4.283-5.341C198.071,193.519,190.972,197.292,190.397,205.069z"/>
		<path fill="#171742" d="M352.003,109.305c-12.399-8.255-28.732-15.112-47.229-19.84c-34.998-8.939-51.452-19.538-63.465-27.295
			c-6.561-4.231-12.23-7.888-19.04-10.262c-1.155-0.404-2.323-0.726-3.46-0.942c-5.806-1.129-11.248,0.144-15.744,3.664
			c-4.441,3.479-7.245,8.729-9.006,13.918c-3.523,0.613-8.372,2.335-13.247,6.851c-0.827,0.523-3.9,1.779-5.411,2.4
			c-4.565,1.863-10.71,4.376-16.081,8.475c-2.984-0.001-14.636,1.113-22.634,17.7c-1.78,3.675-5.447,7.583-9.358,11.308
			c0,0-0.908,0.765-2.254,1.966c-1.344,1.205-3.12,2.847-4.864,4.606c-0.332,0.313-0.674,0.623-0.998,0.931
			c-0.008,0.036-0.013,0.077-0.014,0.115c-1.174,1.231-2.288,2.483-3.184,3.661c-7.917,10.365-7.888,37.819,22.04,38.947
			c29.929,1.121,38.03,3.37,39.77,22.036c1.739,18.667-10.923,52.581,8.659,48.048c6.673-0.513,10.863-2.877,12.816-7.196
			c0.95-2.111,1.24-4.416,1.255-6.846c4.271-2.247,8.587-4.506,12.927-6.713c-1.242,7.063-1.286,14.048,3.022,19.556
			c1.648,2.112,4.678,4.838,9.743,5.813c0.819,0.159,1.677,0.271,2.548,0.325c1.222,0.08,2.521,0.057,3.868-0.063
			c7.803-0.701,12.219-4.5,14.546-7.564c6.254-8.225,4.235-19.193,2.763-27.212c-0.313-1.7-0.637-3.479-0.746-4.586
			c-0.008-0.118-0.027-0.399,0.298-0.855c14.129-3.08,28.772-3.257,43.065-3.423c31.113-0.347,60.508-0.693,78.851-30.816
			c4.883-8.011,6.732-16.056,5.502-23.902C375.08,130.267,366.458,118.914,352.003,109.305z M200.047,211.501
			c-0.042-2.572,0.165-5.082,1.028-7.341c1.397-3.643,5.686-5.222,8.861-4.612c1.109,0.219,2.659,0.805,3.692,2.391
			c0.401,0.615,0.698,1.331,0.896,2.14C209.671,206.492,204.837,208.988,200.047,211.501z M288.978,181.47
			c-3.169,2.449-7.073,3.99-11.438,4.3c-1.255,0.088-2.542,0.08-3.862-0.047c-0.542-0.052-1.071-0.095-1.597-0.133
			c-0.404-0.033-0.797-0.061-1.194-0.084c-1.487-0.097-2.922-0.164-4.29-0.182c-0.007,0-0.012,0.003-0.016,0.006
			c-0.007,0-0.011-0.006-0.013-0.002c-12.384-0.172-19.938,2.726-24.052,6.663c-0.063,0.054-0.129,0.113-0.189,0.175l-0.005,0.002
			c-0.003-0.035-0.009-0.073-0.011-0.107c-0.566-3.778,0.218-7.854,0.218-7.854l-0.003,0.003c-2.374,2.501-3.569,5.815-4.08,9.223
			c-0.521,3.447-0.34,6.986,0.036,9.916c0.472,3.68,1.247,6.391,1.335,6.688c0.011,0.021,0.009,0.036,0.009,0.036
			c1.5,8.604,2.422,18.738-8.125,19.677c-4.837,0.438-6.998-1.257-7.755-4.194v-0.007c-1.03-4.009,0.589-10.326,1.616-16.665
			c0.422-2.62,0.753-5.247,0.743-7.707c0-0.849-0.138-1.698-0.401-2.535c-2.584-8.218-17.03-15.011-27.55-5.272c0,0,0,0-0.008,0.007
			c-1.533,1.417-2.964,3.181-4.282,5.344c-2.917,4.788-1.637,11.53-1.644,16.798c-0.005,4.465-0.936,7.867-6.141,8.116
			c-0.194,0.006-0.376,0.008-0.552,0.007c-0.833-2.013-1.31-4.595-0.235-7.257c2.345-5.827,9.781-34.159-2.935-48.506
			c-12.715-14.348-18.798-15.979-36.928-14.295c-18.131,1.682-30.049-16.425-16.067-29.802c0,0,0.102-0.385,0.174-1.018
			c1.859-1.559,4.027-2.864,6.458-3.807c0.004-0.003,0.008-0.006,0.015-0.005c1.208-0.473,2.431-0.826,3.656-1.084
			c0.733-0.812,1.45-1.637,2.121-2.474c0.012-0.009,0.024-0.025,0.027-0.028c0.01-0.02,0.018-0.026,0.018-0.026
			c1.733-2.152,3.231-4.384,4.342-6.698c5.812-12.056,12.846-11.601,12.846-11.601c-4.366,8.257-0.855,13.447-0.855,13.447
			c1.446-13.521,18.277-20.235,26.453-24.934c1.316-0.756,2.41-1.459,3.175-2.131c4.068-3.552,8.712-4.115,12.755-3.569
			c5.642,0.767,10.091,3.692,10.091,3.692c-5.264,0.283-9.96,1.731-13.51,3.212c-4.061,1.703-6.606,3.45-6.753,3.553
			c1.236-0.414,2.497-0.736,3.779-0.983c19.822-3.796,45.197,11.24,58.647,18.103c14.314,7.305,20.091,16.751,20.091,16.751
			c-12.249-2.803-17.38-1.451-17.38-1.451C302.551,138.156,303.986,169.882,288.978,181.47z M364.35,133.953
			c-6.692-2.134-17.796-4.741-29.021-3.372c-0.01-0.011-0.01-0.011-0.01-0.011c-11.076,1.343-22.269,6.566-29.459,19.935
			c-3.201-8.783-9.578-17.095-18.68-23.935l-4.9-8.013c-0.3-0.492-7.558-12.126-24.392-20.72c-1.42-0.72-3.035-1.576-4.601-2.392
			c-7.54-3.964-17.811-9.358-28.725-13.07l-5.92-6.244c-0.963-1.023-6.083-6.09-13.521-7.715c-0.18-0.038-0.36-0.079-0.539-0.117
			c-0.194-0.036-0.389-0.062-0.582-0.093c2.707-5.854,7.344-10.442,15.255-7.687c17.491,6.116,28.825,23.894,83.256,37.795
			C331.077,105.607,355.271,118.576,364.35,133.953z"/>
		<g>
			<g>
				<g opacity="0.1">
					<path fill="#FFFFFF" d="M216.257,141.075c-0.396,0.595-1.201,0.752-1.794,0.34c-0.587-0.396-0.74-1.204-0.343-1.793
						c0.406-0.594,1.211-0.747,1.806-0.335C216.518,139.682,216.67,140.495,216.257,141.075z"/>
					<path fill="#FFFFFF" d="M216.306,152.49c-0.408,0.59-1.209,0.741-1.8,0.341c-0.59-0.408-0.748-1.219-0.334-1.8
						c0.402-0.597,1.208-0.741,1.799-0.335C216.559,151.091,216.705,151.9,216.306,152.49z"/>
					<path fill="#FFFFFF" d="M218.418,163.742c-0.403,0.597-1.21,0.742-1.802,0.335c-0.589-0.394-0.74-1.201-0.336-1.799
						c0.405-0.589,1.211-0.736,1.8-0.335C218.67,162.345,218.826,163.163,218.418,163.742z"/>
					<path fill="#FFFFFF" d="M206.22,164.945c-0.411,0.591-1.214,0.743-1.8,0.336c-0.594-0.401-0.748-1.202-0.346-1.797
						c0.41-0.587,1.217-0.737,1.803-0.337C206.469,163.549,206.615,164.352,206.22,164.945z"/>
					<path fill="#FFFFFF" d="M198.874,155.611c-0.404,0.584-1.212,0.731-1.8,0.341c-0.593-0.407-0.739-1.221-0.339-1.81
						c0.403-0.591,1.21-0.743,1.8-0.336C199.125,154.208,199.28,155.02,198.874,155.611z"/>
					<path fill="#FFFFFF" d="M203.796,147.07c-0.402,0.59-1.211,0.742-1.803,0.341c-0.586-0.402-0.739-1.209-0.336-1.798
						c0.402-0.597,1.212-0.738,1.802-0.342C204.046,145.672,204.197,146.48,203.796,147.07z"/>
				</g>
			</g>
		</g>
		<path opacity="0.3" fill="#171742" d="M271.125,149.609c0,0,0.812,1.096,1.237,2.502c0.463,1.521,0.477,3.404-1.475,4.657
			c-3.104,2.005-8.812,0.694-10.658,3.917c-0.385,0.669-0.604,1.529-0.597,2.661c0.041,6.585,10.437,1.901,12.706-0.937
			C274.617,159.572,279.117,152.919,271.125,149.609z"/>
		<path opacity="0.3" fill="#171742" d="M276.873,169.749c0,0,0.253,0.346,0.385,0.786c0.136,0.464,0.133,1.033-0.458,1.413
			c-0.952,0.613-2.691,0.217-3.264,1.193c-0.122,0.206-0.192,0.47-0.19,0.82c0.018,2.024,3.202,0.586,3.893-0.284
			C277.942,172.806,279.325,170.768,276.873,169.749z"/>
		<path opacity="0.3" fill="#171742" d="M180.933,99.669c0,0,0.129,0.614,0.039,1.283c0.047,0.087,0.088,0.177,0.121,0.272
			c0.003,0.006,0.004,0.016,0.006,0.024c-0.083,0.078-0.167,0.156-0.25,0.232c-0.169,0.481-0.507,0.91-1.146,1.076
			c-0.076,0.02-0.147,0.041-0.23,0.053c-1.678,0.253-3.812-1.381-5.194-0.382c-0.286,0.207-0.541,0.523-0.751,0.997
			c-0.785,1.764,1.069,2.404,2.897,2.439c1.03,0.021,2.049-0.151,2.586-0.422c1.302-0.656,3.873-2.212,2.673-4.537
			C181.516,100.374,181.269,100.029,180.933,99.669z"/>
		<path opacity="0.3" fill="#171742" d="M214.251,104.563c-0.856,1.652-2.384,3.243-5.043,2.699
			c-4.24-0.875-7.94-6.637-12.118-5.449c-0.868,0.247-1.754,0.786-2.671,1.738c-5.344,5.537,7.17,10.125,11.39,9.606
			c4.226-0.514,13.431-2.382,9.449-11.691C215.258,101.465,215.039,103.04,214.251,104.563z"/>
		<polygon fill="#171742" points="233.614,135.02 217.865,125.477 208.211,141.408 192.28,131.755 182.737,147.504 198.668,157.158 
			189.015,173.091 204.765,182.634 214.418,166.702 230.351,176.354 239.893,160.606 223.961,150.951 		"/>
		<polygon fill="#171742" points="168.583,99.699 155.693,91.888 147.792,104.929 134.75,97.027 126.939,109.919 139.979,117.82 
			132.078,130.862 144.969,138.673 152.871,125.631 165.912,133.533 173.723,120.643 160.682,112.741 		"/>
	</g>
</g>
</svg>
